<?xml version="1.0" encoding="utf-8"?>
<!-- Generator: Adobe Illustrator 24.0.1, SVG Export Plug-In . SVG Version: 6.00 Build 0)  -->
<svg version="1.1" id="V2" xmlns="http://www.w3.org/2000/svg" xmlns:xlink="http://www.w3.org/1999/xlink" x="0px" y="0px"
	 viewBox="0 0 50 50" style="enable-background:new 0 0 50 50;" xml:space="preserve">
<style type="text/css">
	.st0{fill:#0052FB;}
</style>
<title>Logo-SVG</title>
<path class="st0" d="M40,9H10c-0.6,0-1,0.4-1,1v10v10v10c0,0.6,0.4,1,1,1h30c0.6,0,1-0.4,1-1V30V20V10C41,9.4,40.6,9,40,9z M39,19
	H28.1l-0.7,2H39v8h-8.7l-1.8,2H39v8H21.1l-0.3,0.4c-0.2,0.2-0.4,0.3-0.7,0.3c-0.2,0-0.3,0-0.5-0.1c-0.2-0.1-0.3-0.3-0.4-0.5H11v-8
	h10.9l0.7-2H11v-8h8.7l1.8-2H11v-8h17.9l0.3-0.4c0.3-0.3,0.8-0.4,1.2-0.2c0.2,0.1,0.3,0.3,0.4,0.5H39V19z"/>
<rect x="13" y="14" class="st0" width="6" height="2"/>
<rect x="34" y="34" class="st0" width="2" height="2"/>
<rect x="30" y="34" class="st0" width="2" height="2"/>
<rect x="26" y="34" class="st0" width="2" height="2"/>
<polygon class="st0" points="14,36 20.1,36 20.8,34 14,34 "/>
<rect x="21" y="14" class="st0" width="2" height="2"/>
<polygon class="st0" points="25,15.2 26.1,14 25,14 "/>
<polygon class="st0" points="31,16 31,14 29.9,14 29.2,16 "/>
<rect x="33" y="14" class="st0" width="2" height="2"/>
<path class="st0" d="M29.9,14l0.9-2.4c0.1-0.2,0.1-0.4,0-0.6c-0.1-0.2-0.2-0.4-0.4-0.5c-0.4-0.2-0.9-0.2-1.2,0.2L28.9,11l-2.8,3
	L25,15.2L21.5,19l-1.8,2l-5.1,5.5c-0.2,0.3-0.3,0.7-0.2,1c0.1,0.3,0.5,0.6,0.8,0.6h5c0.5,0,0.9-0.4,0.9-0.9c0-0.5-0.4-0.9-0.9-0.9
	h-2.9l4.8-5.2l1.8-2l2.8-3l0.2-0.2l0.5-0.5L26.2,19l-0.7,2l-0.6,1.6c-0.1,0.3-0.1,0.6,0.1,0.8c0.2,0.2,0.5,0.4,0.8,0.4h6.9L27.8,29
	L26,31l-2.8,3l-0.7,0.8l0.3-0.8l1.1-3l0.7-2l0.6-1.5c0.1-0.3,0.1-0.6-0.1-0.8s-0.5-0.4-0.8-0.4h0c-0.4,0-0.8,0.3-0.9,0.7L22.6,29
	l-0.7,2l-1.1,3l-0.7,2l-0.9,2.4c-0.1,0.2-0.1,0.4,0,0.6c0.1,0.2,0.2,0.4,0.4,0.5c0.1,0.1,0.3,0.1,0.5,0.1c0.3,0,0.5-0.1,0.7-0.3
	l0.3-0.4l2.8-3l0.1-0.1l4.5-4.9l1.8-2l5.1-5.5c0.2-0.3,0.3-0.7,0.2-1c-0.1-0.3-0.5-0.6-0.8-0.6h-7.7l0.3-0.9l0.7-2l1.1-3L29.9,14z"
	/>
</svg>
